<?xml version="1.0" encoding="UTF-8"?>
<svg version="1.1" viewBox="0 0 2048 1024" width="1280" height="1280" xmlns="http://www.w3.org/2000/svg">
<path transform="translate(501,153)" d="m0 0 5 1 8 7 11 14 14 18 21 28 10 15 3 6v5l-12 12-7 11-3 7-1 5v8l3 11 4 8 9 10 8 5 7 2 10 1 16-3 13-7h8l8 6 11 14 12 17 5 8 1 4h-15l-21-3-9-12-8 1-8 3h-25l-12-3-14-7-14-12-8-11-7-14-3-14 1-19 4-13 8-16 2-6-5-9-10-13-14-18-8-9-5 1-10 6-16 12-21 16-16 11-16 12-3 1-1 8 1 1 1 13-5 5-9-3-5-4-7 1-21 14-32 24-16 11-13 10-18 13-19 14-36 26-15 11-14 10-17 13-14 10-17 13-16 12-14 10-21 16-13 9-8 6 6 7 10 13 14 18 7 10 4 2 9-1 11-2h13l13 2 14 5 13 9 9 8 7 11 6 12 3 10 1 14-2 13-5 12-9 17 1 6 16 21 8 10 10 13 3 2 5-1 11-8 13-10 38-28 18-13 17-12 18-13 12-8 5-1 1 2v9l-2 17-6 8-17 13-14 11-15 11-14 10-12 9-15 11-13 9-7 6-10 7-16 9-7-4-10-10-13-17-14-18-14-19-10-15-2-4v-8l9-11 9-13 3-7 1-11-3-10-6-11-5-6-11-7-10-3h-12l-15 4-13 7-4-2-8-6-9-11-10-14-14-18-13-18-10-15-2-5 1-7 5-5 9-8 19-14 21-16 14-10 21-16 17-12 16-12 19-14 14-10 16-12 36-26 19-14 36-26 13-10 14-10 21-16 18-13 28-20 18-14 12-9 18-13 19-14 15-10 10-6z" fill="#FEFEFE"/>
<path transform="translate(503,429)" d="m0 0h39l5 3 6 10 13 23 10 17 17 29 13 23 12 20 2 5h2l-1-3-1-16v-111h32l2 3v104l-1 65-7 2h-34l-5-3-7-9-17-28-17-29-9-16-8-14-10-17-8-12-2-2 2 24v104l-1 2h-27l-4-1-1-2v-170z" fill="#FEFEFE"/>
<path transform="translate(1517,426)" d="m0 0h11l14 1 16 4 15 8 12 11 7 10 7 14 4 14 2 15v30l-3 16-6 16-6 10-9 10-9 8-14 7-13 3-8 1h-32l-16-3-12-5-10-7-10-10-9-15-6-15-3-13-1-7v-29l3-16 6-16 6-10 9-11 11-9 14-7 15-4zm3 30-12 2-9 4-8 6-7 10-5 14-2 13v27l4 16 5 10 10 10 10 5 9 2h14l11-3 9-5 6-5 6-10 4-13 1-8v-31l-2-12-4-10-8-11-8-6-10-4z" fill="#FEFEFE"/>
<path transform="translate(766,427)" d="m0 0h32l19 3 9 3 2 3v14l-2 11-2 4-9-2-15-4-11-1h-14l-12 2-9 4-8 6-8 10-6 13-3 13-1 14 2 18 4 12 6 11 9 8 12 4 6 1h16l10-2 4-4v-29l-1-4-20 2h-9l-4-4v-23l2-4 10-1h56l2 5v79l-2 7-11 4-20 3-14 1h-28l-16-2-11-4-10-6-5-4v-2l-3-1-9-12-8-15-5-17-2-13v-25l4-18 6-15 7-11 9-10 12-9 16-8 15-4z" fill="#FEFEFE"/>
<path transform="translate(876,429)" d="m0 0h45l23 1 16 2 10 4 10 7 9 10 6 13 2 12v9l-3 12-6 10-8 9-15 8h-2l8 10 11 18 13 19 9 13 8 12 1 4-2 1h-28l-8-2-6-7-13-20-11-18-9-13-7-6-9-3-6 1-1 21-1 45-4 2h-18l-13-1-1-1-1-72v-82zm37 30-1 1v43l1 3 4 1h10l13-2 12-6 6-7 2-6-1-8-3-9-6-7-6-2-10-1z" fill="#FEFEFE"/>
<path transform="translate(1933,426)" d="m0 0 7 1 5 6 6 14 12 35 12 34 19 56 8 23 1 7-5 1h-29l-3-3-12-36v-2h-67l-3 14-6 25-2 1-14 1h-20l-4-1 1-6 7-18 12-36 19-56 15-42 5-12 2-2 13-2zm-13 33-3 7-8 28-12 36 5 1 15 1h27l-1-6-18-59-4-8z" fill="#FEFEFE"/>
<path transform="translate(304,102)" d="m0 0 8 1 12 5 28 14 19 10 20 10 12 8 4 4v7l-4 16-1 15v15l-3 8-1 1h-8l-8-3-5-5-3-7-1-5v-18l2-9-1-3-5-2-42-21-13-5-2 5-20 40-10 19-12 22-4 7 1 5 6 8 1 2v6l-3 3-18 1-10 18-17 34-10 19-15 27-13 18-6 3-4-1-10-7-1-7 5-13 16-32 10-19 18-35 12-22 16-30 12-22 20-39 14-28 7-11 4-5z" fill="#FEFEFE"/>
<path transform="translate(1039,429)" d="m0 0h32l67 1v28l-1 1h-62v38l59 1 1 1v27l-1 1-55 1h-4l-1 44 63 1 1 1 2 23-1 5-41 1h-59l-1-2-1-20v-151z" fill="#FEFEFE"/>
<path transform="translate(1680,427)" d="m0 0h22l21 3 13 3 4 4v15l-2 9-5 5-23-6-16-2-12 1-8 4-5 8 1 9 7 8 14 8 23 12 11 8 10 9 6 9 4 10 1 9-2 16-6 12-9 10-10 7-11 4-12 2h-31l-19-3-10-4-3-3-2-10-1-13 2-8 5 1 19 7 18 3h16l13-4 5-5 1-2v-9l-6-10-10-7-28-14-11-7-9-8-7-10-4-11-1-5v-13l3-10 5-10 8-10 13-8 11-3z" fill="#FEFEFE"/>
<path transform="translate(1346,427)" d="m0 0h26l18 3 15 4 5 3 1 1-1 9-6 15-4 5-6-2-13-5-14-2h-14l-12 4-2 5v11l4 7 8 7 29 15 14 9 10 9 6 8 3 8 1 6v14l-3 11-4 8-9 11-9 6-10 4-16 3h-31l-19-3-8-3-5-6v-23l2-6 6 1 10 5 17 4 7 1h19l10-4 7-8 2-5-8-12-9-7-29-14-10-7-10-9-7-10-4-9-1-4v-17l3-10 5-10 9-10 10-6 11-4z" fill="#FEFEFE"/>
<path transform="translate(1211,427)" d="m0 0h26l18 3 17 5 4 4-1 7-8 21-2 1-17-7-17-3h-12l-10 3-5 5-2 6 1 7 4 6 8 7 23 12 13 7 13 10 9 11 5 11v21l-4 12-7 11-7 7-10 5-16 4-10 1h-24l-20-2-10-3-4-5-2-16v-8l2-5 7 1 15 5 19 3h20l8-3 5-6 2-7-1-6-5-8-5-4-27-13-14-9-10-9-8-10-4-10-1-6v-13l3-14 6-9 7-8 11-7 11-4z" fill="#FEFEFE"/>
<path transform="translate(1797,429)" d="m0 0 16 1 1 5v66l-1 101-2 16-5 12-7 10-7 6-9 4-14 3-22 1-8-2-2-2v-11l-2-5v-7l1-2 23-1 10-3 3-6 3-17 1-21 1-147z" fill="#FEFEFE"/>
<path transform="translate(418,429)" d="m0 0h34l2 1v123l-1 49-3 1h-30l-3-2v-171z" fill="#FEFEFE"/>
<path transform="translate(70,551)" d="m0 0 6 1 5 4 4 8v8l-6 11-2 4v2l4 2 35 18 13 6 7 2 9-7 13-8 10-4 7 1 8 7 1 8-3 5-11 10-11 9-11 13-2 1h-8l-21-9-40-20-21-12-9-7-4-4-1-4 5-12 7-16 7-9 5-6z" fill="#FEFEFE"/>
<path transform="translate(342,679)" d="m0 0 7 3 8 7v7l-5 12-10 19-10 16-5 4-9-1-21-11-6-5-4-6 1-7 7-6 5-3 7 1 5 2 6-4 6-9 7-12 8-6z" fill="#FEFEFE"/>
<path transform="translate(431,296)" d="m0 0 6 1 8 7 24 32 5 10 1 7-2 3-3 1h-7l-7-4-11-13-9-12-11-15-2-4 1-7z" fill="#FEFEFE"/>
<path transform="translate(1938,375)" d="m0 0h30v3l-7 8-13 12-13 9-12 6-16 4h-4l3-9 7-11 13-16 5-4z" fill="#FEFEFE"/>
<path transform="translate(290,254)" d="m0 0 14 3 5 3 5 4 2 5-1 5-3 2-10 1-9-2-4-4-2-4v-8z" fill="#FEFEFE"/>
</svg>
