<?xml version="1.0" encoding="UTF-8"?>
<svg version="1.1" viewBox="0 0 2048 1024" width="1280" height="1280" xmlns="http://www.w3.org/2000/svg">
<path transform="translate(669,116)" d="m0 0 5 1 12 13 25 25 11 9 13 10 15 9 17 9 16 7 23 7 20 4 22 3 39 1 23-1 34-4 67-10 50-8 42-5 14-1h46l20 2 32 7 21 8 13 5 18 10 13 8 9 7 10 9 10 13 9 9 9 7 15 14 16 16-1 2-14-13-20-14-25-14-22-10-11-4-11-2 8 15 16 26 13 21 12 20 13 21 7 9 8 3 18 4 25 7 21 8 18 8 16 9 12 8 10 9 14 7 14 13 11 9 11 11 7 8 9 10 8 7 2 3-4-2-17-12-14-9-16-11-16-8-17-8-26-10-25-8-42-9-28-3-15-1h-29l-28 2-52 6-36 6-50 11-32 8-40 11-50 15-38 12-43 13-45 13-34 10-41 10-48 10-25 4-45 4-29 1h-42l-40-4-15-2-2-1 2-5 6-7 6-4h23l8-7 12-18 2-4v-3l-9-2-21-1h-6l-3-3-7-13-9-8-14-7-7-2h-11l-18 5-8 7-5 7-6 17-1 2h-4l4 1 2 14v8l-5-1-30-14-21-13-10-7-16-12-14-12-32-32 1-4 5-5h2v-2h2l2-4 9-9 8-7 9-9 8-7 15-14 10-9 13-12 8-7 16-15 8-7 24-22 13-12 9-9 8-7 9-9 8-7 13-12 12-11 26-24 10-9 11-9 7-7 8-7 27-27 8-7zm-7 27-8 6-19 19-3 6 7 8 9 8 4 1 7-4 7-8 10-11 2-4-1-7-5-9-5-5zm29 32-7 6-7 8-11 13-1 3 9 9 12 6 5-5 11-12 7-10 2-7-12-10-2-1zm-81 19-8 6-12 11-28 28-8 7-16 16-8 7-42 42-10 9-34 34-8 7 2 4 11 10 11 9 9 8 19 14 18 12 15 9 27 13 19 7 38 11 8 2h5l7-8 21-32 16-24 7-10 13-19 28-42 10-14 13-19 7-10 1-3-5-4-22-9-25-12-18-10-19-13-10-8-10-9-8-7-9-11zm553 2-2 1 1 10 4 12 3 2 5 1h11l-1-10-4-11-5-4-4-1zm-37 1-2 1 1 12 2 10 3 2h10l5-2 2-3v-11l-2-7-3-2zm-400 2-9 7-10 13-7 8 1 3 8 6 11 5 4-1 7-11 9-12 4-8v-3l-14-7zm373-1-10 2-2 1v19l1 6h10l10-2 2-1v-10l-3-11-2-3zm100 3 1 18 2 3 12 2h9l-1-7-5-10-6-5-4-1zm-135 2-13 3-2 1-1 3v20l2 2h8l12-3 3-4v-14l-2-7-1-1zm169 5 3 12 3 6 5 4 6 3 9-2-5-10-8-7-11-6zm-211 2-11 3-1 2-1 9v12l1 3h7l11-3 5-5v-16l-2-5zm-263 5-8 8-9 12-6 10 1 3 13 6h6l8-7 11-17 3-9-5-5-5-1zm229 1-13 4-3 6-3 17 1 4h8l12-3 3-3 1-3v-19l-2-3zm-41 7-9 3-3 3-6 20-2 8 16-2 8-3 3-7 4-16-1-6zm-154 2-8 10-12 22v3l11 2h9l5-4 12-20 1-3v-8l-4-2zm119 2-9 3-6 8-4 8-4 13v3l14-1 5-2 5-6 7-14 1-9-2-3zm359 0 1 7 5 5 8 6 6 3 3-1-5-8-8-7-7-5zm-442 4-5 5-10 18-3 10 7 1h12l6-4 10-19 2-4v-5l-2-2zm40 0-5 2-4 6-8 17-3 8h18l6-3 8-16 1-11-5-3zm383 2 2 3 2-1zm-110 1-24 2-26 4-3 1v13l4 63 3 57h7l54-10 32-5 42-4 17-1h29l8 1h15l-1-4-10-18-12-21-16-30-13-23-7-11-6-8-8-3-27-3zm111 10m-184 0-24 4-29 6-51 10-29 6-13 4-3 3-10 27-14 43-15 46-12 34-4 12 18-4 23-6 25-7 34-10 72-20 34-9 4-2 1-2-1-47-2-88zm225 4m-395 30-32 4-26 2h-41l-31-3-9-1-5 5-10 14-12 18-12 19-10 15-10 16-10 15-10 16-16 25-10 16-10 15-5 7v2l7 1 17 1h53l40-4 33-5 45-9 8-4 6-14 15-42 13-35 15-40 9-23 3-11zm378 87 2 13 4 8 5 2 19 1h12l-3-9-6-9-4-3-10-2zm-50 2-7 2-1 1 1 9 3 11 1 1h17l16-2 2-1-1-10-3-8-5-3zm106 3 3 9 7 13 10 4 17 3h3v-9l-4-7-8-5-18-6zm-145 2-25 4-5 2 4 20 2 3 19-2 15-3v-11l-2-12-1-1zm-57 10-31 6-2 1 1 14 2 10h8l28-6v-16l-1-9zm-717 1-9 6-21 21 3 6 14 14 14 10 6-5 7-8 10-11 4-7-1-4-17-17-8-5zm981 4v10l3 6 8 5 18 7 8 4 2-1-10-12-7-9-17-9zm-324 8-26 8-5 4-2 6v18l11-1 22-6 5-3 1-9-1-17zm-62 18-26 7-4 3-3 17-1 10 16-3 20-7 4-4-1-21-1-2zm443 3 2 6 9 11 9 7 2-1-7-12-9-9-3-2zm-989 10-6 5-6 8-6 7v2l-4 2-4 4 2 5 13 9 16 10 3-3 7-11 16-16-5-8-7-6-11-7zm486 4-26 9-4 2-5 21-1 7 12-2 23-8 5-3v-26zm-64 18-16 4-8 5-6 12-5 18 10-1 17-5 12-5 2-5 1-7v-16zm-50 14-8 3-24 5-5 3-2 4-2 8-7 16-1 2 13-2 21-6 7-4 7-22 2-7zm-68 15-23 3-5 4-10 21-4 10 23-3 13-4 5-3 4-11 4-13v-4zm-141 7-7 10-10 16-5 9 5 1 24 1 8-2 4-5 10-18 4-7-1-3-22-2zm84-1-19 2-7 3-7 8-9 15-5 9 23-1 13-2 7-6 7-15 3-8v-4z" fill="#FEFEFE"/>
<path transform="translate(740,540)" d="m0 0h12l20 3 10 3 15 8 10 9 6 7 8 15 5 16 2 18v151l-3 2h-57l-2-3-1-16-1-128-3-11-7-14-8-6-6-2-14-1-14 2-12 6-5 4-7 10-4 10-3 16-1 26-1 105-2 1-10 1h-49l-2-5v-177l1-44 1-1 11-1 35-1 2 3 2 18 3 6 7-1 18-14 14-8 16-5z" fill="#FEFEFE"/>
<path transform="translate(1373,544)" d="m0 0 56 1 5 1 1 142 3 16 7 14 6 5 9 3 5 1h14l13-4 11-8 7-8 4-8 3-13 2-18 1-121 2-2h60l1 1v224l-3 2h-42l-3-3-4-10-4-13-8 4-11 10-11 7-19 7-14 2h-24l-13-2-15-5-11-7-8-7-8-10-8-16-4-17-1-17v-142z" fill="#FEFEFE"/>
<path transform="translate(977,541)" d="m0 0h19l17 2 12 3 17 8 14 10 7 7 7 10 9 17 5 17 2 16 1 23v17l-1 2-8 1-138 1-1 1 4 17 7 14 7 9 9 7 10 4 12 2h22l24-3 19-5 18-6 3 1 1 3-1 35-3 7-4 3-20 6-19 4-20 2h-31l-16-2-20-6-16-8-13-10-11-11-10-15-8-19-4-15-2-13v-33l3-20 4-15 10-21 9-12 9-10 13-10 14-7 16-5zm6 43-12 2-12 6-7 7-8 16-3 8v8l1 2 6 1h48l26-1 7-2 1-3-5-16-6-12-8-8-10-5-7-2z" fill="#FEFEFE"/>
<path transform="translate(339,471)" d="m0 0h34l18 2 26 7 19 9 5 4-2 11-9 19-7 18-3 1-17-8-21-7-14-3-18-1-14 2-12 5-10 6-11 11-9 14-6 14-4 17-2 15v35l3 22 5 16 8 16 6 8 7 7 17 9 11 3h32l28-5 21-6 5-2h5l1 5v33l-1 13-8 4-28 7-19 3-11 1h-35l-19-3-16-5-16-8-11-7-14-13-9-11-10-16-7-16-5-15-5-24-2-22v-24l2-17 4-19 6-20 7-16 10-17 9-11 12-12 13-9 15-8 15-6 16-4z" fill="#FEFEFE"/>
<path transform="translate(1622,545)" d="m0 0h68l7 8 10 18 15 24 10 17 2 3 4-2 6-9 24-40 8-13 4-5 2-1h68l-2 4-18 27-21 32-13 19-13 20-5 8 1 5 16 24 29 43 22 33 6 10v3h-66l-8-9-8-13-17-28-10-17-7-9-4 2-14 24-13 21-7 11-9 14-4 3h-66l2-6 12-18 29-43 15-22 10-15 5-10-1-5-9-15-18-27-21-32-20-30z" fill="#FEFEFE"/>
<path transform="translate(1201,474)" d="m0 0 5 1v245l119 1 2 6v43l-2 1-138 1h-41l-2-2-1-4v-287l1-3 12-1z" fill="#FEFEFE"/>
<path transform="translate(529,544)" d="m0 0h20l2 1 1 6v219l-1 1-29 1h-30l-2-2-1-4v-188l1-33z" fill="#FEFEFE"/>
<path transform="translate(514,456)" d="m0 0h15l9 3 10 7 4 7 2 8v11l-3 9-4 6-10 7-10 3h-9l-11-2-12-6-6-9-2-8v-11l4-15 4-5 14-4z" fill="#FEFEFE"/>
<path transform="translate(1527,481)" d="m0 0 3 1-1 2z" fill="#FEFEFE"/>
<path transform="translate(1530,484)" d="m0 0" fill="#FEFEFE"/>
<path transform="translate(1374,318)" d="m0 0" fill="#FEFEFE"/>
<path transform="translate(1373,317)" d="m0 0" fill="#FEFEFE"/>
<path transform="translate(1372,316)" d="m0 0" fill="#FEFEFE"/>
<path transform="translate(1371,315)" d="m0 0" fill="#FEFEFE"/>
<path transform="translate(1370,314)" d="m0 0" fill="#FEFEFE"/>
<path transform="translate(1369,313)" d="m0 0" fill="#FEFEFE"/>
<path transform="translate(1368,312)" d="m0 0" fill="#FEFEFE"/>
<path transform="translate(1367,311)" d="m0 0" fill="#FEFEFE"/>
<path transform="translate(1366,310)" d="m0 0" fill="#FEFEFE"/>
<path transform="translate(1365,309)" d="m0 0" fill="#FEFEFE"/>
<path transform="translate(1364,308)" d="m0 0" fill="#FEFEFE"/>
<path transform="translate(1363,307)" d="m0 0" fill="#FEFEFE"/>
<path transform="translate(1362,306)" d="m0 0" fill="#FEFEFE"/>
<path transform="translate(1361,305)" d="m0 0" fill="#FEFEFE"/>
<path transform="translate(1360,304)" d="m0 0" fill="#FEFEFE"/>
<path transform="translate(1359,303)" d="m0 0" fill="#FEFEFE"/>
<path transform="translate(1358,302)" d="m0 0" fill="#FEFEFE"/>
</svg>
